<?xml version="1.0" standalone="no"?><!DOCTYPE svg PUBLIC "-//W3C//DTD SVG 1.1//EN" "http://www.w3.org/Graphics/SVG/1.1/DTD/svg11.dtd"><svg t="1650977643061" class="icon" viewBox="0 0 3933 1024" version="1.1" xmlns="http://www.w3.org/2000/svg" p-id="41451" xmlns:xlink="http://www.w3.org/1999/xlink" width="491.625" height="128"><defs><style type="text/css"></style></defs><path d="M3829.693561 704.81153801s7.679056-0.188608 22.255792 0c14.549791 0.188608 18.537511 11.127896 18.537511 11.127896s29.23430199 53.78033799 37.07502201 66.76737299c6.978511 11.585945-1.401091 11.370392-3.31411901 11.181784l-0.40416-0.053888 0.40416 0.053888c-0.080832 0.107776-8.27182601 0.377217-93.06477299-0.053888-118.284411-16.03171401-122.326019-122.406852-122.32601901-122.406852v-189.20116899h-66.74043V411.714085c0-9.619028 11.127896-11.127896 11.127896-11.127896h55.58559v-70.485653c0-11.505112 11.127896-14.819231 11.12789501-14.819232l61.917444-17.729189c9.349588-2.66746199 12.23260201 2.85606999 12.23260099 2.85607s3.691336-1.966916 3.691336 6.54740499v97.34887901h96.378893c9.403476 0 11.127896 11.127896 11.127895 11.127895v70.48565401h-107.506788v163.22709799c0 47.421541 51.89425399 55.63947799 51.894254 55.63947801z m-285.418397 81.61354899h-59.33081399c-11.639833 0-11.100952-14.819231-11.10095101-14.819231v-274.55994199c0-16.651427-22.255791-22.255791-22.255791-22.255792h-122.32602c-18.268071 0-18.537511 22.282735-18.537511 22.282736v278.22433399c0 10.912343-11.127896 11.127896-11.127896 11.127895h-59.30387c-13.040924 0-11.127896-14.819231-11.127895-14.819231V426.56026c0-27.725435 33.356743-33.410631 33.356743-33.410631h259.498214c25.920183 0 33.356743 33.410631 33.356743 33.410631v341.273428c0 19.399721-11.100952 18.564455-11.100952 18.564455z m-422.617536-155.817482h-229.832808v55.639478c0 20.073323 25.947127 25.974071 25.947128 25.97407101h185.375113c13.175644 0 22.228847 11.127896 22.228847 11.12789499s16.16643399 33.680071 22.228847 48.229863c6.062413 14.576735-11.127896 14.819231-11.127896 14.819231H2858.49502199c-33.491463 0-40.793303-40.793303-40.79330299-40.793302V430.305484c0-18.13334999 25.947127-25.947127 25.94712699-25.947127h278.06267001c27.914043 0 33.329799 33.383687 33.329799 33.383687v159.50881801c0 26.917113-33.356743 33.410631-33.356743 33.41063099z m-40.766359-133.53474699s-2.344133-18.564455-18.53751099-18.564456h-151.99142601s-18.537511 4.984651-18.537512 18.564456v40.79330199s0.538881 18.564455 18.537512 18.564456h151.96448201s18.564455-4.58049001 18.56445499-22.282736v-37.07502199zM2732.39683401 786.425087H2673.119909c-7.813777 0-11.127896-11.127896-11.127896-11.127895V497.07285801c0-17.244197-22.255791-22.282735-22.25579099-22.28273602h-55.58559001c-15.519777 0-18.537511 22.282735-18.537511 22.28273602v278.22433399c0 9.214868-11.127896 11.127896-11.127896 11.127895h-59.30387c-8.244881 0-11.127896-11.127896-11.127895-11.127895V497.07285801c0-17.648357-22.255791-22.282735-22.255791-22.28273602h-55.58559c-16.974756 0-18.537511 22.282735-18.537512 22.28273602v278.22433399c0 11.909273-11.127896 11.127896-11.127895 11.127895h-59.30386999c-11.127896 0-11.127896-11.127896-11.127896-11.127895v-352.428268c0-20.423595 29.638463-29.692351 29.63846299-29.692351h370.723282c29.746239 0 37.075023 37.101967 37.07502301 37.101967v345.018652c0 12.798427-11.127896 11.127896-11.127896 11.127895z m-537.53394-155.817482h-229.83280701v55.639478c0 20.073323 25.947127 25.974071 25.94712701 25.97407101h185.37511299c13.202588 0 22.228847 11.127896 22.22884701 11.12789499s16.16643399 33.680071 22.255792 48.229863c6.062413 14.576735-11.127896 14.819231-11.127896 14.819231H1931.700288c-33.491463 0-40.76635799-40.793303-40.76635799-40.793302V430.305484c0-18.13334999 25.947127-25.947127 25.94712699-25.947127H2194.86289399c27.940987 0 33.383687 33.383687 33.38368701 33.383687v159.50881801c0 26.917113-33.383687 33.410631-33.38368701 33.41063099z m-40.76635801-133.53474699s-2.344133-18.564455-18.537511-18.564456h-151.96448299s-18.564455 4.984651-18.56445501 18.564456v40.79330199s0.538881 18.564455 18.53751101 18.564456h151.99142699s18.537511-4.58049001 18.537511-22.282736v-37.07502199zM1835.321396 786.425087h-140.863531s-103.087963-4.84992999-111.225068-107.58762c-0.323329-105.485984 0-434.041816 0-434.041816h66.74043s22.228847-0.404161 22.22884699 22.25579101v389.53023399s7.759888 32.225092 51.89425401 44.51158201c49.90039399-0.269441 59.33081399 0 59.33081399 0s19.318889-6.197133 33.35674301 18.564456c14.01091001 24.734644 29.638463 51.92119799 29.638463 51.92119799s2.263301 14.819231-11.100952 14.819231z m-715.445549-22.255791V274.48800199c0-21.71690999 18.510567-25.974071 18.51056699-25.97407099h348.46749101c19.480553 0 11.127896 22.255791 11.127896 22.25579101s-10.858455 30.096512-18.537512 44.51158199c-7.679056 14.415071-22.228847 14.819231-22.22884701 14.819232H1231.073971c-21.043309 0-22.255791 18.591399-22.255792 18.591399v122.406852h255.80687901c15.00784 0 7.409616 18.537511 7.409616 18.53751101s-19.157225 40.874135-25.94712701 51.94814199c-6.78990199 11.047063-22.255791 11.127896-22.255792 11.127896h-215.013576v129.843411c0 17.675301 18.537511 22.255791 18.537512 22.25579101h237.26936701c17.190308 0 22.228847 11.127896 22.22884699 11.12789598s23.49521799 36.67086201 33.356743 51.92119801c9.888469 15.250336-3.691336 18.564455-3.691336 18.564455H1142.10469401c-15.465889 0-22.228847-22.255791-22.22884701-22.255791z m-219.48629-30.797057c-0.269441 42.49077801-22.363567 51.94814199-22.36356701 51.948142s-380.854248 220.106003-405.615836 233.874416c-24.519092 10.53512601-40.954967 0-40.95496699 0S32.97952601 788.068675 18.429735 777.910765c-14.549791-10.15791001-14.900064-26.001015-14.900064-26.00101499s0.404161-457.671755 0-478.87672701c-0.404161-21.178029 26.054903-37.101967 26.054904-37.101967L427.763851 5.747976c24.519092-12.933147 48.364583 0 48.36458301 0s351.78161001 204.50539401 390.74271598 226.4648c38.233617 18.160295 33.518407 55.66642199 33.51840701 55.66642199s0.215552 405.993053 0 445.49304101z m-158.996881-459.36923C659.859959 227.066461 467.80272 115.787505 467.80272 115.787505s-18.753064-10.130965-37.991121 0L117.179704 295.908527s-20.773868 12.47509799-20.477483 29.045694c0.323329 16.597539 0 374.791835 0 374.791834s0.269441 12.39426601 11.69372101 20.342764 324.325616 188.823952 324.325616 188.823952 12.879259 8.244881 32.14425998 0c19.453609-10.777623 318.478755-183.03098 318.47875501-183.03098s17.325029-7.409616 17.51363699-40.685526c0.080832-9.56514 0.107776-46.801827 0.10777701-93.54976701L448.887992 804.962599v-81.61355c0-33.518407 25.947127-55.63947799 25.947127-55.639478l311.419412-187.63841301c11.747609-12.28648999 14.17257399-31.928708 14.65756699-39.365268v-82.71825499L448.887992 571.222903v-85.30488499c0-33.545351 22.255791-48.22986199 22.255791-48.22986201l270.248893-163.712091z" fill="#409EFF" p-id="41452"></path></svg>