<?xml version="1.0" standalone="no"?><!DOCTYPE svg PUBLIC "-//W3C//DTD SVG 1.1//EN" "http://www.w3.org/Graphics/SVG/1.1/DTD/svg11.dtd"><svg t="1650977275938" class="icon" viewBox="0 0 3032 1024" version="1.1" xmlns="http://www.w3.org/2000/svg" p-id="34726" xmlns:xlink="http://www.w3.org/1999/xlink" width="379" height="128"><defs><style type="text/css"></style></defs><path d="M4978.40795837 707.32087016z m-3002.42441019 29.27362438c-0.27616644 43.55141966-22.92180016 53.24485621-22.92180017 53.24485621s-390.36101753 225.60022282-415.74069663 239.71231852c-25.13113037 10.79810101-41.97727277 0-41.97727275 0S1086.92148738 792.65624662 1072.00851005 782.24477758c-14.91297861-10.41146774-15.27199422-26.65004449-15.2719955-26.65004449s0.41424965-469.0960197 0-490.83030493c-0.41424965-21.70666886 26.70527856-38.02809477 26.70527857-38.02809481L1491.5603015-9.19250672c25.13113037-13.25598128 49.57184465 0 49.57184467 0s360.56267668 209.61019612 400.49631881 232.11774661c39.18799329 18.61360657 34.35508321 57.055951 34.35508319 57.05594968s0.22093238 416.12732993 0 456.61330497z m-162.96571414-470.8358675C1729.44992177 217.65046375 1532.59860814 103.59379582 1532.59860814 103.59379582s-19.22117221-10.38385136-38.93944326-1e-8L1173.22344634 288.2109448s-21.29241921 12.78649756-20.98863635 29.77072317c0.3313992 17.01184201 0 384.14727653 0 384.14727657s0.27616644 12.70364841 11.9856159 20.85055313 332.42133445 193.53731897 332.42133446 193.53731896 13.20074721 8.45068758 32.94663593 0c19.9392047-11.04665107 326.42852585-187.59974442 326.42852582-187.59974443s17.75749087-7.59457188 17.95080687-41.70110629c0.08285045-9.8039021 0.11046684-47.97008009 0.11046684-95.88492742L1513.21173632 809.97187144v-83.65076271c0-34.35508321 26.59481172-57.02833332 26.59481171-57.02833335l319.19296955-192.32218764c12.04084869-12.59318157 14.52634534-32.72570226 15.02344544-40.34789183v-84.78304356L1513.21173632 570.39763489v-87.43423985c0-34.38269959 22.81133332-49.43376144 22.81133329-49.43376141l276.99476443-167.79862298z" fill="#409EFF" p-id="34727"></path></svg>