<?xml version="1.0" standalone="no"?><!DOCTYPE svg PUBLIC "-//W3C//DTD SVG 1.1//EN" "http://www.w3.org/Graphics/SVG/1.1/DTD/svg11.dtd"><svg t="1650976559912" class="icon" viewBox="0 0 1024 1024" version="1.1" xmlns="http://www.w3.org/2000/svg" p-id="21021" xmlns:xlink="http://www.w3.org/1999/xlink" width="128" height="128"><defs><style type="text/css"></style></defs><path d="M681.6 192a9.6 9.6 0 0 0-9.6 9.6v175.904l-39.872-23.264a15.968 15.968 0 0 0-16.256 0l-95.808 55.872a16.128 16.128 0 0 0-8.064 13.952v111.872c0 5.76 3.072 11.072 8.064 13.952l95.808 55.872a15.968 15.968 0 0 0 16.256 0l95.808-55.872a16.128 16.128 0 0 0 8.064-13.952V231.36a16.032 16.032 0 0 0-7.936-13.792l-41.696-24.256A9.44 9.44 0 0 0 681.632 192z m-313.6 160.064a16.192 16.192 0 0 0-8.128 2.176l-95.808 55.872a16.128 16.128 0 0 0-8.064 13.952v111.872c0 5.76 3.072 11.072 8.064 13.952l95.808 55.872c5.024 2.88 11.2 2.88 16.256 0l95.808-55.872a16.128 16.128 0 0 0 8.064-13.952v-111.872a16.064 16.064 0 0 0-8.064-13.952l-95.808-55.872a16.192 16.192 0 0 0-8.128-2.176z m512 0a15.968 15.968 0 0 0-8.128 2.176l-95.808 55.872a16.128 16.128 0 0 0-8.064 13.952v111.872c0 5.76 3.072 11.072 8.064 13.952l92.928 56.16a15.936 15.936 0 0 0 16.32 0.128l45.696-26.56a7.168 7.168 0 0 0 0-12.352L832 508.928V451.52l48-27.936 48 27.936v40c0 5.344 4.48 6.176 7.488 4.384a17411.84 17411.84 0 0 1 48.576-28.256 16 16 0 0 0 7.936-13.792v-29.76a16.064 16.064 0 0 0-8.064-13.952l-95.808-55.872a16.064 16.064 0 0 0-8.128-2.176z m-768 0.064a15.968 15.968 0 0 0-8.128 2.176L8.064 410.112a16.224 16.224 0 0 0-8.064 14.016v142.816c0 6.976 7.552 11.296 13.568 7.808l42.496-24.736A16.032 16.032 0 0 0 64 536.192v-84.576l48-28 48 28v84.576c0 5.696 3.04 10.912 7.936 13.792l42.496 24.768A9.024 9.024 0 0 0 224 566.944v-142.816a16.224 16.224 0 0 0-8.064-14.016l-95.808-55.808a15.968 15.968 0 0 0-8.128-2.176z m512 71.424l48 28v56.896l-48 28-48-28V451.52l48-28z m256 24.576l-27.424 16v31.936L880 512l27.424-15.936v-31.936l-27.424-16z m-387.008 127.808a19.36 19.36 0 0 0-9.504 2.432L393.504 630.4a18.752 18.752 0 0 0-9.504 16.384v103.872c0 6.688 3.744 12.992 9.504 16.384l23.68 13.504c11.36 5.6 15.552 5.6 20.704 5.6 16.96 0 26.624-10.144 26.624-28.064v-102.624a2.624 2.624 0 0 0-2.624-2.688h-11.392a2.688 2.688 0 0 0-2.688 2.688v102.624c0 7.776-8.224 15.776-21.632 9.088l-24.64-14.208a2.88 2.88 0 0 1-1.344-2.368V646.72c0-0.928 0.448-2.016 1.376-2.496l89.984-51.872a2.912 2.912 0 0 1 2.816 0l90.08 51.84c0.928 0.512 1.376 1.44 1.376 2.528v103.872a2.976 2.976 0 0 1-1.376 2.496l-90.08 52.064a2.912 2.912 0 0 1-2.816 0l-22.976-13.696c-0.64-0.32-1.6-0.48-2.208-0.16a53.888 53.888 0 0 1-13.568 6.24c-1.568 0.48-3.68 1.44 0.832 3.936l29.856 17.76a20.544 20.544 0 0 0 9.504 2.496 17.44 17.44 0 0 0 9.376-2.624l90.016-52.064a18.752 18.752 0 0 0 9.504-16.384v-103.872a19.296 19.296 0 0 0-9.504-16.384l-90.016-52a18.688 18.688 0 0 0-9.376-2.432z m140.384 47.936a17.28 17.28 0 1 0 0.064 34.56 17.28 17.28 0 0 0-0.064-34.56z m-0.192 2.752c8.128 0 14.72 6.4 14.72 14.496a14.944 14.944 0 0 1-14.72 14.72 14.592 14.592 0 0 1-14.432-14.72c0-8.096 6.496-14.496 14.432-14.496z m-6.304 4.704v19.424h3.68v-7.744h3.456c1.408 0 1.728 0.576 2.048 1.664 0 0.16 0.576 5.216 0.736 6.144h4a22.88 22.88 0 0 1-0.928-5.184c-0.448-2.496-0.576-4.224-3.232-4.384 1.408-0.48 3.744-1.216 3.744-4.8 0-5.152-4.48-5.12-6.816-5.12h-6.72z m3.68 3.104h3.136c0.96 0 2.816 0 2.816 2.624 0 1.088-0.48 2.88-3.008 2.816h-2.944v-5.44z m-113.44 15.872c-25.696 0-40.96 10.976-40.96 29.024 0 19.776 15.296 25.056 39.904 27.52 29.44 2.976 31.744 7.2 31.744 12.96 0 10.112-8.128 14.304-27.136 14.304-23.84 0-29.056-5.888-30.784-17.728-0.16-1.28-1.28-2.208-2.688-2.208h-11.712a2.624 2.624 0 0 0-2.624 2.688c0 15.104 8.256 33.184 47.648 33.184 28.896 0 45.248-11.2 45.248-30.848 0-19.456-13.12-24.64-40.832-28.384-28.032-3.744-30.816-5.632-30.816-12.192 0-5.44 2.304-12.576 23.04-12.576 18.496 0 25.408 4.064 28.224 16.512 0.32 1.28 1.184 2.016 2.432 2.016h11.68c0.768 0 1.44-0.32 1.888-0.768 0.48-0.608 0.768-1.216 0.64-1.984-1.856-21.504-16.064-31.52-44.896-31.52z" fill="#689F63" p-id="21022"></path></svg>