<?xml version="1.0" standalone="no"?><!DOCTYPE svg PUBLIC "-//W3C//DTD SVG 1.1//EN" "http://www.w3.org/Graphics/SVG/1.1/DTD/svg11.dtd"><svg t="1650977202464" class="icon" viewBox="0 0 1150 1024" version="1.1" xmlns="http://www.w3.org/2000/svg" p-id="32174" xmlns:xlink="http://www.w3.org/1999/xlink" width="143.75" height="128"><defs><style type="text/css"></style></defs><path d="M575.414891 409.380398a102.574648 102.574648 0 1 0 0 205.148172 102.574648 102.574648 0 0 0 0-205.148172zM288.085624 715.988349l-22.622166-5.75416C96.747437 667.610697-0.001124 595.252133-0.001124 511.739265s96.784524-155.83884 265.464582-198.494924l22.622166-5.718197 6.364416 22.442348c19.602356 66.896607 41.830047 123.830201 68.300307 178.278941l-2.949007-6.689211 4.855073 10.214758-4.855073 10.214759c-23.59318 47.798864-45.853464 104.732458-63.335096 163.680007l-2.016204 7.914218z m-33.160596-350.306976C126.707281 401.684209 48.014645 456.783664 48.014645 511.739265c0 54.919637 78.692635 110.019092 206.910383 146.056768 18.414436-58.264243 37.62007-106.638523 59.774711-153.322519l-3.092862 7.264627c-19.097743-39.490172-38.33934-87.864452-54.344221-137.672777l-2.337628-8.415459z m607.821377 350.306976l-6.36554-22.477188c-19.565268-66.860644-41.791836-123.758274-68.330651-178.174422l2.913043 6.617284-4.855072-10.214758 4.855072-10.214758c23.59318-47.798864 45.853464-104.696494 63.372184-163.644044l2.013956-7.947934 6.36554-22.442349 22.694093 5.718197c168.639599 42.62012 265.421875 114.982056 265.421875 198.530888S1054.048629 667.579229 885.404535 710.234189z m-23.521253-204.213121a1188.245309 1188.245309 0 0 1 56.681849 146.057892c128.289675-36.075887 206.910383-91.173094 206.910383-146.056768 0-54.956725-78.692635-110.019092-206.910383-146.056768-18.378473 58.227156-37.584106 106.564349-59.775834 153.285432l3.092861-7.192701zM254.601357 365.466716l-6.36554-22.406385c-47.439229-167.168467-33.052705-286.970756 39.454209-328.762592 71.104337-41.036602 185.295195 7.444445 304.953629 130.231704l16.295962 16.724152-16.295962 16.724152a1136.530918 1136.530918 0 0 0-113.723333 138.571864l-2.445518 3.708736-6.47343 9.243744-11.2577 0.971014a1138.92811 1138.92811 0 0 0-189.324231 30.930859l7.840043-1.685789z m90.920226-317.939826c-12.840094 0-24.20456 2.76919-33.807939 8.307569-47.652763 27.481734-56.105309 123.009783-23.268385 251.907466 43.518084-10.250722 96.427137-18.738108 150.336425-23.665107l4.711218-0.359635a1198.675848 1198.675848 0 0 1 99.1244-122.78726l-0.71927 0.786702C467.087207 88.890536 396.271702 47.529138 345.522707 47.529138z m459.823703 976.437146c-68.330652 0-156.091709-51.467141-247.156912-144.977863l-16.29259-16.723027 16.295961-16.724152a1130.308109 1130.308109 0 0 0 113.650283-138.613447l2.445518-3.708737 6.47343-9.242619 11.221736-0.971015a1141.563561 1141.563561 0 0 0 189.432122-30.858931l-7.841167 1.654321 22.622166-5.718197 6.437466 22.442349c47.331339 167.060576 32.980778 286.898829-39.526135 328.690664a112.628694 112.628694 0 0 1-56.177236 14.785494h-1.618358zM608.936245 861.83046c74.808577 72.826089 145.625206 114.190859 196.373078 114.190858h0.035963c12.80413 0 24.20456-2.76919 33.771975-8.308692 47.651639-27.478362 56.142396-123.039004 23.269509-251.940058-43.590011 10.286685-96.459729 18.774071-150.408352 23.665107l-4.675255 0.359635a1194.736721 1194.736721 0 0 1-99.085064 122.859186l0.71927-0.786701z m287.294427-496.363744l-22.622166-5.718197c-52.259462-13.5234-114.190859-23.880888-177.634969-28.98883l-3.991949-0.251744-11.221736-0.971015-6.47343-9.243743a1135.465499 1135.465499 0 0 0-116.420596-142.640236l0.323672 0.359635-16.295962-16.724151 16.295962-16.724152C677.774881 21.814111 791.929776-26.66806 863.142004 14.332579c72.506913 41.827799 86.893437 161.594124 39.526135 328.728875z m-188.928633-81.786621a1197.963321 1197.963321 0 0 1 155.084731 24.025867c32.908851-128.906674 24.420341-224.425732-23.269509-251.904095-47.367302-27.370472-136.41855 14.566342-230.181016 105.88329a1200.404344 1200.404344 0 0 1 95.884313 118.291821l2.481481 3.708736zM345.522707 1023.964036h-1.654321a113.390671 113.390671 0 0 1-56.723432-15.06983l0.539452 0.287708c-72.506913-41.755872-86.893437-161.558161-39.454208-328.690665l6.329576-22.442348 22.622166 5.718197c55.387163 13.954962 116.492523 23.772998 181.519028 29.20461l11.257699 0.971015 6.437467 9.242619a1133.693173 1133.693173 0 0 0 116.499266 142.676199l-0.359635-0.359635 16.295961 16.724152-16.295961 16.724152c-91.032612 93.510722-178.785802 144.977863-247.013058 144.977863z m-57.077448-308.191468c-32.908851 128.906674-24.420341 224.461695 23.269509 251.940058 47.331339 27.010837 136.346623-14.638269 230.181016-105.88329a1206.401257 1206.401257 0 0 1-95.920276-118.327785l-2.481482-3.708736a1198.172359 1198.172359 0 0 1-163.071999-25.571173l8.055824 1.54643z m286.969632 30.103698c-39.454208 0-80.01879-1.726248-120.665413-5.070854l-11.2577-0.971014-6.47343-9.243744c-19.565268-27.622216-40.964675-60.817652-61.033432-94.913298l-3.708736-6.833065c-16.256626-27.261458-34.922807-62.292155-52.147077-98.112926l-3.776167-8.739131-4.783146-10.214758 4.783146-10.214758c21.003808-44.561025 39.634026-79.555759 59.630856-113.68737l-3.708736 6.869029c19.852976-34.347391 41.683945-68.586892 64.734301-101.747487l6.473431-9.243744 11.257699-0.971014c36.145566-3.236715 78.189146-5.106817 120.665413-5.106818s84.514227 1.870102 126.059938 5.506911l-5.394526-0.395598 11.221737 0.971014 6.437466 9.243744c42.331288 59.918564 82.50589 128.289675 116.960048 199.969428l3.740204 8.63124 4.855073 10.214758-4.855073 10.214758c-38.051632 80.275029-78.261073 148.64614-123.686346 213.097229l2.98497-4.495437-6.437466 9.243743-11.221736 0.971015c-40.60504 3.344606-81.247168 5.070854-120.7025 5.070853z m-105.342714-51.967259a1392.806826 1392.806826 0 0 0 210.759602 0c36.109603-51.97063 71.1403-111.63745 101.67556-173.930729l3.632314-8.204174c-34.059683-70.42103-69.126344-130.08785-108.328808-186.661808l2.98497 4.531401c-31.542238-2.553409-68.26322-3.991949-105.343837-3.991949s-73.801599 1.43854-110.162946 4.279657l4.819109-0.287708a1328.906428 1328.906428 0 0 0-101.783451 174.074583l-3.560387 8.055824c34.204661 70.494081 69.269074 130.160901 108.400735 186.771947l-3.056897-4.675255z" fill="#61DAFB" p-id="32175"></path></svg>